<svg width="98" height="98" viewBox="0 0 98 98" fill="none" xmlns="http://www.w3.org/2000/svg">
<g clip-path="url(#clip0_31_82)">
<path fill-rule="evenodd" clip-rule="evenodd" d="M98.2532 47.4353L123.518 72.7002L116.489 79.7288L98.2532 61.4926L76.5026 83.2432L54.759 61.4996L33.0155 83.2432L11.2649 61.4926L-6.97139 79.7288L-14 72.7002L11.2649 47.4353L33.0155 69.1859L54.759 47.4423L76.5026 69.1859L98.2532 47.4353Z" fill="white"/>
<path fill-rule="evenodd" clip-rule="evenodd" d="M98.2532 13.4941L123.518 38.7591L116.489 45.7877L98.2532 27.5514L76.5026 49.302L54.759 27.5585L33.0155 49.302L11.2649 27.5514L-6.97139 45.7877L-14 38.7591L11.2649 13.4941L33.0155 35.2447L54.759 13.5012L76.5026 35.2447L98.2532 13.4941Z" fill="white"/>
</g>
<defs>
<clipPath id="clip0_31_82">
<rect width="97.24" height="97.24" fill="white"/>
</clipPath>
</defs>
</svg>
