<svg width="371" height="360" viewBox="0 0 371 360" fill="none" xmlns="http://www.w3.org/2000/svg">
<g clip-path="url(#clip0_27_10)">
<mask id="mask0_27_10" style="mask-type:luminance" maskUnits="userSpaceOnUse" x="0" y="111" width="74" height="162">
<path d="M3.05176e-05 111.72H73.9V272.42H3.05176e-05V111.72Z" fill="white"/>
</mask>
<g mask="url(#mask0_27_10)">
<path d="M72.9 137.48C40.31 167.88 11.75 206.83 21.22 238.56C24.01 247.91 27.63 254.74 31.87 259.6L20.63 271.41C11.1 262.72 4.68001 248.95 1.79001 230.27C-4.08999 192.29 23.46 147.06 61.96 112.72L72.9 137.48Z" fill="black"/>
</g>
<mask id="mask1_27_10" style="mask-type:luminance" maskUnits="userSpaceOnUse" x="4" y="75" width="367" height="232">
<path d="M4.57999 75.95H370.49V306.94H4.57999V75.95Z" fill="white"/>
</mask>
<g mask="url(#mask1_27_10)">
<path d="M349.86 88.84C359.39 97.53 365.81 111.3 368.7 129.98C377.79 188.67 307.03 264.65 239.46 291.08C183.69 312.89 73.9499 319.17 27.5999 249.64C-21.0901 176.6 24.1299 91.46 38.2899 76.95C34.3199 88.17 28.8899 139.57 69.0199 168.54C65.1999 187.08 64.9199 210.06 75.8199 233.56C101.82 289.62 172.63 292.11 228.58 271.39C259.19 260.05 366.39 179.07 349.27 121.69C346.48 112.34 342.86 105.51 338.62 100.65" fill="white"/>
</g>
<mask id="mask2_27_10" style="mask-type:luminance" maskUnits="userSpaceOnUse" x="60" y="53" width="306" height="232">
<path d="M60.96 53.32H365.9V284.31H60.96V53.32Z" fill="white"/>
</mask>
<g mask="url(#mask2_27_10)">
<path d="M61.9601 112.72C82.9501 93.99 107.19 78.5 131.03 69.18C186.8 47.37 296.54 41.09 342.89 110.62C391.58 183.66 346.36 268.81 332.2 283.31C336.17 272.09 341.6 220.69 301.47 191.72C305.29 173.18 305.57 150.2 294.67 126.7C268.67 70.64 197.86 68.15 141.91 88.87C128.23 93.94 99.2401 112.92 72.9001 137.49" fill="black"/>
</g>
<path d="M324.25 295.85C313.44 309.02 294.97 311.38 278.32 299.17C267.96 291.57 259.92 275.13 274.52 254.62C290.75 231.83 274.43 215.86 269.08 213.18C251.47 204.37 230.19 235.29 231.62 244.88C239.12 233.78 257.17 241.73 252.16 254.79C248.6 257.29 246.32 258.83 243.57 260.31C249.48 246.8 232.63 245.11 230.43 267.38C226.44 269.67 224.96 270.47 220.09 272.01C224.06 257.74 211.76 252.11 206.79 276.2C202.75 277.4 200.19 278.22 196.58 278.79C198.52 265.89 206.97 241.19 220.79 245.47C219.37 235.89 229.7 181.33 279.43 185.73C329.16 190.13 345.47 269.99 324.24 295.85" fill="black"/>
<path d="M72.2399 295.02C87.3499 301.93 102.54 304.86 106.43 305.38C107.38 310.56 116.54 332.37 144.24 330.11C166.51 328.3 174.28 313.18 168.57 306.47C150.83 285.62 127.88 318.5 123.99 323.94C118.55 321.22 114.45 317.77 111.69 312.11C115.58 305.38 129.21 277.15 157.19 278.18C185.16 279.22 194.98 293.34 197.92 302.63C202.34 316.59 182.57 347.5 148.99 350.26C100.61 354.24 74.5699 314.69 72.2399 295.01" fill="black"/>
<path d="M152.27 351.83C156.96 359.33 188.21 365.88 200.7 346.56C210.22 331.83 192.99 329.28 190.81 329.28C186.48 335.45 184.12 337.15 180.24 339.65C192.5 343.53 174.66 351.3 169.36 346.82C163.14 349.84 157.45 351.22 152.27 351.83Z" fill="black"/>
<path d="M198.54 351.49C209.25 358.61 244.61 367.16 258.72 338.8C268.91 318.33 263.24 300.97 250.17 289.33C232.43 273.53 195.15 281.04 191.41 287.6C196.65 293.73 198.54 297.79 200.1 304C208.65 302.71 221.97 303.18 226.67 310.43C231.38 317.68 228.77 324.37 224.27 329.86C219.77 335.34 210.93 339.05 204.76 336.98C205.85 342.74 200.78 349.47 198.54 351.48" fill="black"/>
<path d="M258.98 343.2C269.21 341.26 303.83 315.53 310.52 307.63C296.74 311.03 286.38 308.15 276.25 300.03C262.19 288.77 262.62 270.18 269.39 261.18C259.38 273.66 239.99 279.77 231.79 279.48C245.34 280.86 258.12 292.63 262.27 301.58C271.33 321.15 260.45 339.63 258.99 343.19" fill="black"/>
<mask id="mask3_27_10" style="mask-type:luminance" maskUnits="userSpaceOnUse" x="36" y="52" width="139" height="124">
<path d="M36.14 52.11H174.91V175.78H36.14V52.11Z" fill="white"/>
</mask>
<g mask="url(#mask3_27_10)">
<path d="M46.24 64.41C57.05 51.25 75.52 48.88 92.18 61.1C102.54 68.7 110.58 85.14 95.98 105.65C79.75 128.44 96.07 144.41 101.42 147.09C119.03 155.9 140.31 124.97 138.88 115.39C131.38 126.49 113.33 118.54 118.34 105.48C121.9 102.98 124.18 101.44 126.93 99.96C121.02 113.47 137.87 115.16 140.07 92.89C144.06 90.6 145.54 89.8 150.41 88.26C146.44 102.53 158.74 108.16 163.7 84.07C167.74 82.87 170.3 82.04 173.91 81.48C171.97 94.38 163.52 119.08 149.69 114.8C151.12 124.38 140.78 178.94 91.05 174.54C41.32 170.14 25.01 90.28 46.24 64.42" fill="white"/>
</g>
<mask id="mask4_27_10" style="mask-type:luminance" maskUnits="userSpaceOnUse" x="170" y="8" width="130" height="76">
<path d="M170.95 8.7H299.25V83.09H170.95V8.7Z" fill="white"/>
</mask>
<g mask="url(#mask4_27_10)">
<path d="M298.25 65.24C283.14 58.33 267.95 55.4 264.06 54.88C263.11 49.7 253.95 27.89 226.25 30.15C203.98 31.96 196.21 47.08 201.92 53.79C219.66 74.64 242.61 41.76 246.5 36.32C251.94 39.04 256.04 42.49 258.8 48.15C254.91 54.88 241.28 83.12 213.3 82.08C185.33 81.04 175.51 66.92 172.57 57.63C168.15 43.67 187.92 12.76 221.5 9.99999C269.88 6.01999 295.92 45.57 298.25 65.25" fill="white"/>
</g>
<mask id="mask5_27_10" style="mask-type:luminance" maskUnits="userSpaceOnUse" x="165" y="0" width="55" height="32">
<path d="M165.94 0H219.22V31.97H165.94V0Z" fill="white"/>
</mask>
<g mask="url(#mask5_27_10)">
<path d="M218.22 8.43C213.53 0.930001 182.28 -5.62 169.79 13.7C160.26 28.43 177.5 30.98 179.68 30.98C184.01 24.81 186.37 23.11 190.25 20.61C177.99 16.72 195.83 8.95 201.13 13.44C207.35 10.42 213.04 9.04 218.22 8.43Z" fill="white"/>
</g>
<mask id="mask6_27_10" style="mask-type:luminance" maskUnits="userSpaceOnUse" x="105" y="0" width="76" height="82">
<path d="M105.54 0.770004H180.08V81.32H105.54V0.770004Z" fill="white"/>
</mask>
<g mask="url(#mask6_27_10)">
<path d="M171.95 8.77001C161.24 1.65001 125.89 -6.9 111.77 21.46C101.58 41.93 107.25 59.29 120.32 70.93C138.06 86.73 175.34 79.22 179.08 72.66C173.84 66.53 171.95 62.47 170.39 56.26C161.84 57.55 148.52 57.08 143.82 49.83C139.12 42.58 141.72 35.89 146.22 30.41C150.72 24.93 159.56 21.22 165.73 23.29C164.64 17.53 169.71 10.8 171.95 8.79001" fill="white"/>
</g>
<mask id="mask7_27_10" style="mask-type:luminance" maskUnits="userSpaceOnUse" x="58" y="16" width="82" height="85">
<path d="M58.9799 16.06H139.71V100.08H58.9799V16.06Z" fill="white"/>
</mask>
<g mask="url(#mask7_27_10)">
<path d="M111.51 17.06C101.28 19 66.66 44.73 59.97 52.63C73.75 49.23 84.1099 52.11 94.2399 60.23C108.3 71.49 107.87 90.08 101.1 99.08C111.12 86.61 130.5 80.49 138.7 80.78C125.15 79.4 112.37 67.63 108.22 58.68C99.16 39.11 110.04 20.63 111.5 17.07" fill="white"/>
</g>
<mask id="mask8_27_10" style="mask-type:luminance" maskUnits="userSpaceOnUse" x="19" y="251" width="122" height="33">
<path d="M19.63 251.21H140.19V283.43H19.63V251.21Z" fill="white"/>
</mask>
<g mask="url(#mask8_27_10)">
<path d="M31.8699 259.61C50.74 281.27 81.8199 264.05 105.65 256.44C130.38 248.54 136.97 253.24 139.19 258.12C134.68 255.22 123 254.36 109.02 262.65C69.7299 285.93 39.2499 288.39 20.6399 271.42" fill="black"/>
</g>
<mask id="mask9_27_10" style="mask-type:luminance" maskUnits="userSpaceOnUse" x="230" y="76" width="121" height="34">
<path d="M230.3 76.84H350.86V109.06H230.3V76.84Z" fill="white"/>
</mask>
<g mask="url(#mask9_27_10)">
<path d="M338.62 100.65C319.75 78.99 288.67 96.21 264.84 103.82C240.11 111.72 233.52 107.02 231.3 102.14C235.81 105.04 247.49 105.9 261.47 97.61C300.76 74.33 331.24 71.87 349.85 88.84" fill="white"/>
</g>
<path d="M194.69 324.22C196.42 329.44 208.66 333.24 210.81 323.64C213.11 313.34 202.15 311.12 199.79 312.44C199.16 317.68 195.85 322.66 194.7 324.22" fill="black"/>
<path d="M175.8 37.11C174.07 31.89 161.83 28.09 159.69 37.69C157.39 47.99 168.35 50.21 170.71 48.89C171.34 43.65 174.65 38.67 175.8 37.11Z" fill="white"/>
</g>
<defs>
<clipPath id="clip0_27_10">
<rect width="370.49" height="359.26" fill="white"/>
</clipPath>
</defs>
</svg>
