<svg width="371" height="360" viewBox="0 0 371 360" fill="none" xmlns="http://www.w3.org/2000/svg">
<g clip-path="url(#clip0_27_10)">
<mask id="mask0_27_10" style="mask-type:luminance" maskUnits="userSpaceOnUse" x="296" y="111" width="75" height="162">
<path d="M370.49 111.72H296.59V272.42H370.49V111.72Z" fill="white"/>
</mask>
<g mask="url(#mask0_27_10)">
<path d="M297.59 137.48C330.18 167.88 358.74 206.83 349.27 238.56C346.48 247.91 342.86 254.74 338.62 259.6L349.86 271.41C359.39 262.72 365.81 248.95 368.7 230.27C374.58 192.29 347.03 147.06 308.53 112.72L297.59 137.48Z" fill="black"/>
</g>
<mask id="mask1_27_10" style="mask-type:luminance" maskUnits="userSpaceOnUse" x="0" y="75" width="366" height="232">
<path d="M365.91 75.95H0V306.94H365.91V75.95Z" fill="white"/>
</mask>
<g mask="url(#mask1_27_10)">
<path d="M20.6301 88.84C11.1001 97.53 4.68005 111.3 1.79005 129.98C-7.29995 188.67 63.4601 264.65 131.03 291.08C186.8 312.89 296.54 319.17 342.89 249.64C391.58 176.6 346.36 91.46 332.2 76.95C336.17 88.17 341.6 139.57 301.47 168.54C305.29 187.08 305.57 210.06 294.67 233.56C268.67 289.62 197.86 292.11 141.91 271.39C111.3 260.05 4.10005 179.07 21.2201 121.69C24.0101 112.34 27.6301 105.51 31.8701 100.65" fill="white"/>
</g>
<mask id="mask2_27_10" style="mask-type:luminance" maskUnits="userSpaceOnUse" x="4" y="53" width="306" height="232">
<path d="M309.53 53.32H4.58997V284.31H309.53V53.32Z" fill="white"/>
</mask>
<g mask="url(#mask2_27_10)">
<path d="M308.53 112.72C287.54 93.99 263.3 78.5 239.46 69.18C183.69 47.37 73.9499 41.09 27.5999 110.62C-21.0901 183.66 24.1299 268.81 38.2899 283.31C34.3199 272.09 28.8899 220.69 69.0199 191.72C65.1999 173.18 64.9199 150.2 75.8199 126.7C101.82 70.64 172.63 68.15 228.58 88.87C242.26 93.94 271.25 112.92 297.59 137.49" fill="black"/>
</g>
<path d="M46.2399 295.85C57.0499 309.02 75.5199 311.38 92.1699 299.17C102.53 291.57 110.57 275.13 95.9699 254.62C79.7399 231.83 96.0599 215.86 101.41 213.18C119.02 204.37 140.3 235.29 138.87 244.88C131.37 233.78 113.32 241.73 118.33 254.79C121.89 257.29 124.17 258.83 126.92 260.31C121.01 246.8 137.86 245.11 140.06 267.38C144.05 269.67 145.53 270.47 150.4 272.01C146.43 257.74 158.73 252.11 163.7 276.2C167.74 277.4 170.3 278.22 173.91 278.79C171.97 265.89 163.52 241.19 149.7 245.47C151.12 235.89 140.79 181.33 91.0599 185.73C41.3299 190.13 25.0199 269.99 46.2499 295.85" fill="black"/>
<path d="M298.25 295.02C283.14 301.93 267.95 304.86 264.06 305.38C263.11 310.56 253.95 332.37 226.25 330.11C203.98 328.3 196.21 313.18 201.92 306.47C219.66 285.62 242.61 318.5 246.5 323.94C251.94 321.22 256.04 317.77 258.8 312.11C254.91 305.38 241.28 277.15 213.3 278.18C185.33 279.22 175.51 293.34 172.57 302.63C168.15 316.59 187.92 347.5 221.5 350.26C269.88 354.24 295.92 314.69 298.25 295.01" fill="black"/>
<path d="M218.22 351.83C213.53 359.33 182.28 365.88 169.79 346.56C160.27 331.83 177.5 329.28 179.68 329.28C184.01 335.45 186.37 337.15 190.25 339.65C177.99 343.53 195.83 351.3 201.13 346.82C207.35 349.84 213.04 351.22 218.22 351.83Z" fill="black"/>
<path d="M171.95 351.49C161.24 358.61 125.88 367.16 111.77 338.8C101.58 318.33 107.25 300.97 120.32 289.33C138.06 273.53 175.34 281.04 179.08 287.6C173.84 293.73 171.95 297.79 170.39 304C161.84 302.71 148.52 303.18 143.82 310.43C139.11 317.68 141.72 324.37 146.22 329.86C150.72 335.34 159.56 339.05 165.73 336.98C164.64 342.74 169.71 349.47 171.95 351.48" fill="black"/>
<path d="M111.51 343.2C101.28 341.26 66.66 315.53 59.97 307.63C73.75 311.03 84.11 308.15 94.24 300.03C108.3 288.77 107.87 270.18 101.1 261.18C111.11 273.66 130.5 279.77 138.7 279.48C125.15 280.86 112.37 292.63 108.22 301.58C99.16 321.15 110.04 339.63 111.5 343.19" fill="black"/>
<mask id="mask3_27_10" style="mask-type:luminance" maskUnits="userSpaceOnUse" x="195" y="52" width="140" height="124">
<path d="M334.35 52.11H195.58V175.78H334.35V52.11Z" fill="white"/>
</mask>
<g mask="url(#mask3_27_10)">
<path d="M324.25 64.41C313.44 51.25 294.97 48.88 278.31 61.1C267.95 68.7 259.91 85.14 274.51 105.65C290.74 128.44 274.42 144.41 269.07 147.09C251.46 155.9 230.18 124.97 231.61 115.39C239.11 126.49 257.16 118.54 252.15 105.48C248.59 102.98 246.31 101.44 243.56 99.96C249.47 113.47 232.62 115.16 230.42 92.89C226.43 90.6 224.95 89.8 220.08 88.26C224.05 102.53 211.75 108.16 206.79 84.07C202.75 82.87 200.19 82.04 196.58 81.48C198.52 94.38 206.97 119.08 220.8 114.8C219.37 124.38 229.71 178.94 279.44 174.54C329.17 170.14 345.48 90.28 324.25 64.42" fill="white"/>
</g>
<mask id="mask4_27_10" style="mask-type:luminance" maskUnits="userSpaceOnUse" x="71" y="8" width="129" height="76">
<path d="M199.54 8.7H71.24V83.09H199.54V8.7Z" fill="white"/>
</mask>
<g mask="url(#mask4_27_10)">
<path d="M72.24 65.24C87.35 58.33 102.54 55.4 106.43 54.88C107.38 49.7 116.54 27.89 144.24 30.15C166.51 31.96 174.28 47.08 168.57 53.79C150.83 74.64 127.88 41.76 123.99 36.32C118.55 39.04 114.45 42.49 111.69 48.15C115.58 54.88 129.21 83.12 157.19 82.08C185.16 81.04 194.98 66.92 197.92 57.63C202.34 43.67 182.57 12.76 148.99 9.99999C100.61 6.01999 74.57 45.57 72.24 65.25" fill="white"/>
</g>
<mask id="mask5_27_10" style="mask-type:luminance" maskUnits="userSpaceOnUse" x="151" y="0" width="54" height="32">
<path d="M204.55 0H151.27V31.97H204.55V0Z" fill="white"/>
</mask>
<g mask="url(#mask5_27_10)">
<path d="M152.27 8.43C156.96 0.930001 188.21 -5.62 200.7 13.7C210.23 28.43 192.99 30.98 190.81 30.98C186.48 24.81 184.12 23.11 180.24 20.61C192.5 16.72 174.66 8.95 169.36 13.44C163.14 10.42 157.45 9.04 152.27 8.43Z" fill="white"/>
</g>
<mask id="mask6_27_10" style="mask-type:luminance" maskUnits="userSpaceOnUse" x="190" y="0" width="75" height="82">
<path d="M264.95 0.770004H190.41V81.32H264.95V0.770004Z" fill="white"/>
</mask>
<g mask="url(#mask6_27_10)">
<path d="M198.54 8.77001C209.25 1.65001 244.6 -6.9 258.72 21.46C268.91 41.93 263.24 59.29 250.17 70.93C232.43 86.73 195.15 79.22 191.41 72.66C196.65 66.53 198.54 62.47 200.1 56.26C208.65 57.55 221.97 57.08 226.67 49.83C231.37 42.58 228.77 35.89 224.27 30.41C219.77 24.93 210.93 21.22 204.76 23.29C205.85 17.53 200.78 10.8 198.54 8.79001" fill="white"/>
</g>
<mask id="mask7_27_10" style="mask-type:luminance" maskUnits="userSpaceOnUse" x="230" y="16" width="82" height="85">
<path d="M311.51 16.06H230.78V100.08H311.51V16.06Z" fill="white"/>
</mask>
<g mask="url(#mask7_27_10)">
<path d="M258.98 17.06C269.21 19 303.83 44.73 310.52 52.63C296.74 49.23 286.38 52.11 276.25 60.23C262.19 71.49 262.62 90.08 269.39 99.08C259.37 86.61 239.99 80.49 231.79 80.78C245.34 79.4 258.12 67.63 262.27 58.68C271.33 39.11 260.45 20.63 258.99 17.07" fill="white"/>
</g>
<mask id="mask8_27_10" style="mask-type:luminance" maskUnits="userSpaceOnUse" x="230" y="251" width="121" height="33">
<path d="M350.86 251.21H230.3V283.43H350.86V251.21Z" fill="white"/>
</mask>
<g mask="url(#mask8_27_10)">
<path d="M338.62 259.61C319.75 281.27 288.67 264.05 264.84 256.44C240.11 248.54 233.52 253.24 231.3 258.12C235.81 255.22 247.49 254.36 261.47 262.65C300.76 285.93 331.24 288.39 349.85 271.42" fill="black"/>
</g>
<mask id="mask9_27_10" style="mask-type:luminance" maskUnits="userSpaceOnUse" x="19" y="76" width="122" height="34">
<path d="M140.19 76.84H19.63V109.06H140.19V76.84Z" fill="white"/>
</mask>
<g mask="url(#mask9_27_10)">
<path d="M31.87 100.65C50.74 78.99 81.82 96.21 105.65 103.82C130.38 111.72 136.97 107.02 139.19 102.14C134.68 105.04 123 105.9 109.02 97.61C69.73 74.33 39.25 71.87 20.64 88.84" fill="white"/>
</g>
<path d="M175.8 324.22C174.07 329.44 161.83 333.24 159.68 323.64C157.38 313.34 168.34 311.12 170.7 312.44C171.33 317.68 174.64 322.66 175.79 324.22" fill="black"/>
<path d="M194.69 37.11C196.42 31.89 208.66 28.09 210.8 37.69C213.1 47.99 202.14 50.21 199.78 48.89C199.15 43.65 195.84 38.67 194.69 37.11Z" fill="white"/>
</g>
<defs>
<clipPath id="clip0_27_10">
<rect width="370.49" height="359.26" fill="white"/>
</clipPath>
</defs>
</svg>
